<?xml version="1.0" encoding="UTF-8" standalone="no"?>
<!-- Created with Inkscape (http://www.inkscape.org/) -->

<svg
   xmlns:dc="http://purl.org/dc/elements/1.1/"
   xmlns:cc="http://creativecommons.org/ns#"
   xmlns:rdf="http://www.w3.org/1999/02/22-rdf-syntax-ns#"
   xmlns:svg="http://www.w3.org/2000/svg"
   xmlns="http://www.w3.org/2000/svg"
   xmlns:sodipodi="http://sodipodi.sourceforge.net/DTD/sodipodi-0.dtd"
   xmlns:inkscape="http://www.inkscape.org/namespaces/inkscape"
   width="800"
   height="600"
   viewBox="0 0 211.66667 158.75"
   version="1.1"
   id="svg8"
   inkscape:version="0.92.2 (5c3e80d, 2017-08-06)"
   sodipodi:docname="duckrabbit.svg">
  <defs
     id="defs2" />
  <sodipodi:namedview
     id="base"
     pagecolor="#ffffff"
     bordercolor="#666666"
     borderopacity="1.0"
     inkscape:pageopacity="0.0"
     inkscape:pageshadow="2"
     inkscape:zoom="0.7"
     inkscape:cx="388.9261"
     inkscape:cy="237.12621"
     inkscape:document-units="mm"
     inkscape:current-layer="layer1"
     showgrid="false"
     units="px"
     inkscape:window-width="1309"
     inkscape:window-height="689"
     inkscape:window-x="184"
     inkscape:window-y="149"
     inkscape:window-maximized="0" />
  <metadata
     id="metadata5">
    <rdf:RDF>
      <cc:Work
         rdf:about="">
        <dc:format>image/svg+xml</dc:format>
        <dc:type
           rdf:resource="http://purl.org/dc/dcmitype/StillImage" />
        <dc:title />
      </cc:Work>
    </rdf:RDF>
  </metadata>
  <g
     inkscape:label="Layer 1"
     inkscape:groupmode="layer"
     id="layer1"
     transform="translate(0,-138.25001)">
    <path
       transform="rotate(15.806221)"
       style="fill:#9e9ea0;fill-opacity:1;stroke-width:0.26458332"
       d="m 151.26119,155.45702 c 0,5.90436 -21.77824,10.69078 -48.64306,10.69078 -26.864814,0 -51.243663,-2.87173 -51.243661,-8.77609 1e-6,-1.53689 4.817919,-4.28864 7.685159,-6.71683 2.478548,-2.09901 4.324552,-5.17406 8.196349,-6.06404 8.856308,-2.03572 19.449277,3.90851 33.276313,3.90851 17.66596,0 32.36701,2.89163 43.17255,2.44633 4.86585,-0.20053 7.55635,2.48961 7.55635,4.51134 z"
       id="path4506"
       inkscape:connector-curvature="0"
       sodipodi:nodetypes="ssssssss" />
    <path
       transform="rotate(9.5426512)"
       style="fill:#9e9ea0;fill-opacity:1;stroke-width:0.26458332"
       d="m 133.03449,182.95245 c 1e-5,2.70958 -5.7254,7.27547 -17.33753,8.84247 -8.63075,1.16469 -22.555336,0.19527 -34.449961,0.19527 -3.905325,0 -8.718715,-1.44126 -12.684557,-1.39957 -11.000615,0.11562 -20.788475,1.64818 -27.329272,0.30138 -3.445616,-0.70947 -3.762248,-1.63732 -5.169074,-3.06279 -1.969747,-1.99584 -4.192702,-6.03125 -4.192698,-7.29321 1.8e-5,-4.72348 22.751078,-6.13617 50.649148,-6.13617 27.898074,0 50.513924,3.82914 50.513944,8.55262 z"
       id="path4508"
       inkscape:connector-curvature="0"
       sodipodi:nodetypes="sssssasss" />
    <path
       style="fill:#9e9ea0;fill-opacity:1;stroke-width:0.4447611"
       d="m 85.52624,223.23361 c 1.690656,-21.13587 63.61015,0 63.61015,0 0,0 5.53288,47.76769 -11.75986,55.05751 -14.91134,6.28594 -34.37053,10.12648 -49.712134,1.06908 -5.026015,-2.96727 3.54979,-11.27182 3.741774,-17.10523 0.432676,-13.14684 -6.976746,-25.30943 -5.87993,-39.02136 z"
       id="rect4510"
       inkscape:connector-curvature="0"
       sodipodi:nodetypes="scssas" />
    <path
       style="fill:#9e9ea0;fill-opacity:1;stroke-width:1.36194599"
       d="M 497.35547 134.32031 C 391.71491 134.32031 306.07618 202.38496 306.07617 286.34766 C 306.07616 370.31039 391.71491 438.375 497.35547 438.375 C 552.32223 438.375 601.87327 419.94754 636.76367 390.44141 C 652.56266 377.1747 689.7365 348.7349 691.06055 328.10352 C 686.01688 317.50791 689.29378 319.97972 695.47656 314.92773 C 701.98155 309.61251 700.39839 283.53474 694.23633 267.95508 C 689.49854 255.97647 683.01841 250.314 676.55273 242.12305 C 661.59484 223.17386 656.32154 207.16742 627.92383 188.45312 C 594.81014 166.63096 543.73235 134.32031 497.35547 134.32031 z M 501.66016 182.72266 C 503.77625 182.86512 505.90329 183.19446 508.00391 183.69727 C 510.10452 184.20007 512.17866 184.87546 514.18945 185.70508 C 516.20025 186.5347 518.14749 187.51966 519.99414 188.64258 C 521.84079 189.7655 523.58714 191.0255 525.19531 192.4082 C 527.30153 194.21919 529.57875 196.23323 531.77148 198.4043 C 533.96422 200.57537 536.07383 202.90455 537.84375 205.3457 C 538.72871 206.56628 539.52719 207.81471 540.21094 209.08594 C 540.89469 210.35716 541.46198 211.65032 541.88086 212.96094 C 542.29974 214.27156 542.57177 215.60068 542.66211 216.93945 C 542.75244 218.27822 542.66125 219.62676 542.35938 220.98242 C 542.12675 222.02715 541.74325 222.98098 541.23242 223.85742 C 540.7216 224.73386 540.08394 225.53342 539.34766 226.26758 C 538.61137 227.00173 537.7762 227.67119 536.86719 228.28906 C 535.95817 228.90694 534.97627 229.47239 533.94727 230 C 531.88925 231.05521 529.64346 231.95647 527.42188 232.80664 C 525.20029 233.65681 523.00233 234.45736 521.03906 235.31055 C 519.01444 236.1904 516.93374 237.10071 514.81445 237.94727 C 512.69516 238.79382 510.53708 239.57616 508.36133 240.20117 C 506.18557 240.82618 503.9909 241.29261 501.79688 241.50781 C 499.60285 241.72302 497.41042 241.68755 495.23633 241.30469 C 493.0347 240.91697 490.89375 240.23051 488.83008 239.31445 C 486.76641 238.39839 484.77929 237.25268 482.88477 235.94336 C 480.99024 234.63404 479.18832 233.16125 477.49414 231.59375 C 475.79996 230.02625 474.21265 228.36443 472.75 226.67383 C 471.30058 224.99852 469.77441 223.196 468.32617 221.29883 C 466.87794 219.40166 465.50904 217.40984 464.37305 215.35547 C 463.23706 213.3011 462.33494 211.18401 461.82227 209.03711 C 461.56593 207.96366 461.40547 206.88134 461.36328 205.79688 C 461.32109 204.71241 461.39657 203.6245 461.60742 202.53711 C 461.75701 201.76575 461.99682 201.0339 462.31445 200.33594 C 462.63208 199.63797 463.02751 198.97534 463.48438 198.34375 C 464.39811 197.08058 465.56151 195.94207 466.85938 194.90234 C 468.15724 193.86262 469.58945 192.9212 471.04102 192.04883 C 472.49258 191.17646 473.96305 190.3744 475.33789 189.61328 C 477.32164 188.51506 479.39267 187.49716 481.52539 186.59766 C 483.65811 185.69816 485.85323 184.91585 488.08203 184.29102 C 490.31083 183.66618 492.57369 183.19806 494.8457 182.92383 C 497.11771 182.6496 499.39782 182.57034 501.66016 182.72266 z "
       id="path828"
       transform="matrix(0.26458333,0,0,0.26458333,0,138.25001)" />
  </g>
</svg>
