<?xml version="1.0" encoding="UTF-8" standalone="no"?>
<!-- Created with Inkscape (http://www.inkscape.org/) -->

<svg
   xmlns:dc="http://purl.org/dc/elements/1.1/"
   xmlns:cc="http://creativecommons.org/ns#"
   xmlns:rdf="http://www.w3.org/1999/02/22-rdf-syntax-ns#"
   xmlns:svg="http://www.w3.org/2000/svg"
   xmlns="http://www.w3.org/2000/svg"
   xmlns:sodipodi="http://sodipodi.sourceforge.net/DTD/sodipodi-0.dtd"
   xmlns:inkscape="http://www.inkscape.org/namespaces/inkscape"
   width="800"
   height="600"
   viewBox="0 0 211.66667 158.75"
   version="1.1"
   id="svg8"
   inkscape:version="0.92.2 (5c3e80d, 2017-08-06)"
   sodipodi:docname="duckrabbit.svg">
  <defs
     id="defs2" />
  <sodipodi:namedview
     id="base"
     pagecolor="#ffffff"
     bordercolor="#666666"
     borderopacity="1.0"
     inkscape:pageopacity="0.0"
     inkscape:pageshadow="2"
     inkscape:zoom="0.7"
     inkscape:cx="240.73157"
     inkscape:cy="237.12621"
     inkscape:document-units="mm"
     inkscape:current-layer="layer1"
     showgrid="false"
     units="px"
     inkscape:window-width="1309"
     inkscape:window-height="689"
     inkscape:window-x="99"
     inkscape:window-y="147"
     inkscape:window-maximized="0" />
  <metadata
     id="metadata5">
    <rdf:RDF>
      <cc:Work
         rdf:about="">
        <dc:format>image/svg+xml</dc:format>
        <dc:type
           rdf:resource="http://purl.org/dc/dcmitype/StillImage" />
        <dc:title></dc:title>
      </cc:Work>
    </rdf:RDF>
  </metadata>
  <g
     inkscape:label="Layer 1"
     inkscape:groupmode="layer"
     id="layer1"
     transform="translate(0,-138.25001)">
    <path
       style="fill:#9e9ea0;fill-opacity:1;stroke-width:0.36034822"
       d="m 182.84306,225.06089 c -0.35032,5.45872 -10.18574,12.98342 -14.36589,16.49357 -9.23142,7.80683 -22.34195,12.68241 -36.88524,12.68241 -27.95073,0 -50.60927,-18.00893 -50.609267,-40.22407 3e-6,-22.21513 22.658537,-40.22406 50.609267,-40.22406 12.27055,0 25.78484,8.54893 34.54617,14.32271 7.51356,4.95149 8.90902,9.18648 12.86663,14.20012 1.71071,2.16719 3.42533,3.66567 4.67887,6.83501 1.63038,4.12212 2.04897,11.02172 0.32786,12.42804 -1.63586,1.33667 -2.50287,0.68285 -1.1684,3.48627 z"
       id="path4504"
       inkscape:connector-curvature="0"
       sodipodi:nodetypes="ccssssassc" />
    <path
       transform="rotate(15.806221)"
       style="fill:#9e9ea0;fill-opacity:1;stroke-width:0.26458332"
       d="m 151.26119,155.45702 c 0,5.90436 -21.77824,10.69078 -48.64306,10.69078 -26.864814,0 -51.243663,-2.87173 -51.243661,-8.77609 1e-6,-1.53689 4.817919,-4.28864 7.685159,-6.71683 2.478548,-2.09901 4.324552,-5.17406 8.196349,-6.06404 8.856308,-2.03572 19.449277,3.90851 33.276313,3.90851 17.66596,0 32.36701,2.89163 43.17255,2.44633 4.86585,-0.20053 7.55635,2.48961 7.55635,4.51134 z"
       id="path4506"
       inkscape:connector-curvature="0"
       sodipodi:nodetypes="ssssssss" />
    <path
       transform="rotate(9.5426512)"
       style="fill:#9e9ea0;fill-opacity:1;stroke-width:0.26458332"
       d="m 133.03449,182.95245 c 1e-5,2.70958 -5.7254,7.27547 -17.33753,8.84247 -8.63075,1.16469 -22.555336,0.19527 -34.449961,0.19527 -3.905325,0 -8.718715,-1.44126 -12.684557,-1.39957 -11.000615,0.11562 -20.788475,1.64818 -27.329272,0.30138 -3.445616,-0.70947 -3.762248,-1.63732 -5.169074,-3.06279 -1.969747,-1.99584 -4.192702,-6.03125 -4.192698,-7.29321 1.8e-5,-4.72348 22.751078,-6.13617 50.649148,-6.13617 27.898074,0 50.513924,3.82914 50.513944,8.55262 z"
       id="path4508"
       inkscape:connector-curvature="0"
       sodipodi:nodetypes="sssssasss" />
    <path
       style="fill:#9e9ea0;fill-opacity:1;stroke-width:0.4447611"
       d="m 85.52624,223.23361 c 1.690656,-21.13587 63.61015,0 63.61015,0 0,0 5.53288,47.76769 -11.75986,55.05751 -14.91134,6.28594 -34.37053,10.12648 -49.712134,1.06908 -5.026015,-2.96727 3.54979,-11.27182 3.741774,-17.10523 0.432676,-13.14684 -6.976746,-25.30943 -5.87993,-39.02136 z"
       id="rect4510"
       inkscape:connector-curvature="0"
       sodipodi:nodetypes="scssas" />
    <path
       transform="rotate(12.866564)"
       style="fill:#ffffff;fill-opacity:1;stroke-width:0.26458332"
       inkscape:transform-center-x="-9.4441033"
       inkscape:transform-center-y="4.483464"
       d="m 183.70186,159.82446 c 0.0124,2.26547 -2.83092,3.60873 -4.65547,4.9517 -1.88157,1.38494 -3.96922,2.94904 -6.30259,3.06639 -2.36292,0.11883 -4.75422,-1.04963 -6.66175,-2.44922 -1.89027,-1.38693 -4.21886,-3.22564 -4.2963,-5.56887 -0.0549,-1.66222 1.54109,-3.03369 2.78022,-4.14299 1.78794,-1.60061 4.01359,-2.95219 6.38368,-3.3282 2.21688,-0.35171 4.65624,0.0645 6.64135,1.11212 2.59991,1.37213 6.0948,3.41934 6.11086,6.35907 z"
       id="path4514"
       inkscape:connector-curvature="0"
       sodipodi:nodetypes="aaaaaaaaa" />
  </g>
</svg>
